<?xml version="1.0" encoding="UTF-8"?> <svg xmlns="http://www.w3.org/2000/svg" data-name="Group 231" width="303.92" height="308.353"><path data-name="Path 128" d="M197.597 101.942a14.874 14.874 0 01-14.8-14.284h29.707a14.862 14.862 0 01-14.9 14.285zM128.85 44.088l46.071.028v-2.273h-46.07v2.245zm0 4.357v2.122h46.071v-2.27h-46.068v.148zm26.63-12.182l.018 2.325-2.557.032 2.539-2.357zm-7.205 2.368c1.182-.005.774-.192 2.215-1.388l4.508-4.143c.442-.451.5-.43.5-1.2v-2.911l-4.4 3.991c-2.973 3.037-2.832 1.127-2.822 5.651zm0-6.714c0-.727 0-1.453-.005-2.18 0-1.5-.346-1.265 1.492-2.844l5.713-5.212.02 3.081c0 .821-.345.911-1.537 2l-5.682 5.157zm.04-7.3c.317-.306.681-.556 1-.878.423-.423.591-.585 1.005-.939l3.933-3.637c.35-.293.675-.612 1.007-.939.37-.363.229-.862.232-1.54-.733.129-1.434.528-2.43.651-.729.091-.781-.048-1.257.355l-1.634 1.5c-1.482 1.372-1.9 1.377-1.9 2.647l.045 2.778zm-2.371-15.214a5.978 5.978 0 116.613 5.235 5.981 5.981 0 01-6.613-5.235zm7.132-9.408h-2.269c-.643.317-1.714.4-2.436.74a8.718 8.718 0 00-3.1 13.632c.493.53.423.283.412 1.2-.09 8.548.055 17.119-.005 25.669h12.415c.073-8.5.088-17.1 0-25.557-.019-1.813 1.06-1.144 2.092-4.321a8.652 8.652 0 00-2.642-9.26A7.891 7.891 0 00154.4.376l-1.319-.374zm-48.262 141.279c1.5 1.254 3 2.7 4.432 4.061l9.567 8.818c1.388 1.365 3.767 3.342 5.151 4.7.291.285.413.445.706.7 2.064 1.767 3.835 3.646 5.926 5.433l4.4 4.04c1.623 1.558 3.394 3.3 5.1 4.734 1.29 1.085 2.453 2.3 3.7 3.436l2.231 1.994c1.037 1 5.472 4.943 5.789 5.4.473-.192 5.012-4.524 5.993-5.4l4.439-4.1c1.452-1.5 4.557-4.071 5.891-5.459l8.838-8.144c1.519-1.291 2.865-2.758 4.4-4.04l15.472-14.266c.262-.237.429-.464.7-.7l1.509-1.355v-34.129l-2.88.009c.069 10.429-.059 20.879 0 31.309.005.891.155 1.016-.376 1.443-1.006.806-1.9 1.811-2.879 2.637l-1.931 1.748c-.389.381-.557.572-.939.9-1.321 1.128-2.506 2.424-3.812 3.538-1.78 1.52-4.136 3.931-5.743 5.288l-12.424 11.475c-1.771 1.5-4.066 3.86-5.747 5.283l-10.437 9.6c-.7-.474-4.434-4.159-5.581-5.11-.96-.8-1.8-1.73-2.753-2.544l-5.525-5.085c-.5-.427-.906-.875-1.406-1.3-2.379-2.01-4.48-4.34-6.861-6.332-.5-.421-.9-.881-1.4-1.3-2.391-1.994-4.474-4.337-6.866-6.326-1.451-1.206-2.729-2.618-4.164-3.839l-2.756-2.543c-.481-.412-.864-.837-1.348-1.246-.513-.433-.893-.848-1.41-1.294l-2.751-2.546c-.45-.377-.939-.842-1.368-1.262l-.04-32.383h-2.839l-.006 34.157zm46.978 50.35a22.664 22.664 0 00-2.2-2.064l-5.506-5.093c-.333-.286-.784-.767-1.112-1.049-1.5-1.287-2.9-2.772-4.394-4.043-.393-.335-.666-.659-1.054-1l-2.279-2.052c-1.52-1.558-3.862-3.65-5.512-5.086-2.256-1.963-4.342-4.2-6.622-6.136-1.9-1.612-3.658-3.544-5.562-5.144-.437-.367-.679-.643-1.115-1.046l-4.392-4.043c-1.532-1.272-2.94-2.822-4.448-4.1l-6.037-5.537c-.218-.213-.3-.354-.525-.551-1.11-.975-.815-.579-.815-3.565 0-11.348.068-22.717 0-34.063h2.882c-.132 11.366.1 22.8-.005 34.173-.008.943-.045 1 .516 1.523l5.269 4.793c.385.345.654.657 1.058 1 1.322 1.112 3.732 3.572 5.152 4.793l6.326 5.79c.19.177.283.317.469.5l3.747 3.4c.406.374.646.654 1.051 1l10.46 9.654a10.834 10.834 0 001.021.927l11.533 10.635a15.02 15.02 0 002.157 1.963 18.688 18.688 0 002.107-1.908c.782-.829 4.165-3.755 5.257-4.8l24.054-22.223c1.431-1.234 2.8-2.662 4.225-3.888l3.11-2.84c.4-.335.657-.664 1.058-.993 1.078-.884 2.075-1.986 3.165-2.893 1.423-1.185 2.749-2.629 4.169-3.834.383-.326.665-.674 1.053-1 .95-.8.663-.75.663-3.429 0-10.765-.127-21.606 0-32.36h2.876v36.794a19.509 19.509 0 01-2.314 2.275l-12.91 11.855c-.312.266-.52.536-.821.8l-3.285 2.992c-2.123 1.8-4.346 4.078-6.452 5.982-.289.261-.541.432-.827.691l-2.4 2.245c-.315.266-.452.444-.766.743l-4.868 4.438c-.311.266-.509.529-.818.8l-4.049 3.738c-.294.261-.525.433-.825.694-2.155 1.866-4.256 4.119-6.452 5.98-1.536 1.3-2.914 2.792-4.459 4.084a1.306 1.306 0 00-.439.482zm.207-41.833a12.268 12.268 0 01-1.887-1.628l-8.754-8.011c-.485-.506-1.509-1.133-1.563-1.833-.073-.981.005-2.337.005-3.361v-80.7h14.11c-.429.622-2.419 2.023-2.6 2.514v3.5l.943-.823a8.565 8.565 0 00.835-.788l4.334-3.991c.471-.42.413-.412 1.244-.412h3.164c-.33.571-3.87 3.646-4.724 4.417l-3.239 3.027c-.373.375-2.559 2.074-2.559 2.531l.024 3.333 6.315-5.761c1.239-1.28 2.648-2.4 3.94-3.63a27.035 27.035 0 012.382-2.161v1.19c0 2.39.35 2.149-.765 3.138-.29.257-.463.5-.758.751l-6.377 5.844c-.665.724-1.595 1.466-2.38 2.166a27.294 27.294 0 01-2.371 2.164l-.007 3.583a40.275 40.275 0 003.186-2.887l6.325-5.79c.3-.255.464-.492.757-.751s.542-.435.824-.695l1.52-1.423a26.506 26.506 0 01.021 3.507c-.108.421-4.785 4.581-5.385 5.107-.358.314-.57.595-.936.9a7.6 7.6 0 00-.9.83 11.532 11.532 0 01-.923.81l-4.5 4.107.035 3.592c.255-.241.493-.428.783-.676l11.037-10.158a2.983 2.983 0 01.806-.715v3.7c-1.02.724-2.889 2.647-3.94 3.614-.29.266-.53.44-.821.7-1.012.9-7.248 6.848-7.887 7.245v3.586l11.084-10.127c.293-.25.466-.477.763-.745.281-.253.523-.433.773-.674.1.754.2 3.335-.128 3.807a7.951 7.951 0 01-1.031.914c-.368.315-.613.634-.993.95-.4.337-.662.651-1.058 1a11.847 11.847 0 00-1.036.913l-2.016 1.876c-1.429 1.209-2.705 2.571-4.117 3.777l-2.1 1.9a12.636 12.636 0 00-.106 3.7l6.286-5.743c.3-.253.465-.5.756-.752a30.876 30.876 0 002.375-2.17 7.69 7.69 0 01.8-.716c.326-.272.448-.436.768-.744.278-.268.525-.435.816-.7.356-.326.4-.5.815-.729l-.016 3.713c-1.133.8-2.1 1.953-3.174 2.866-.3.254-.462.49-.762.747-1.845 1.581-3.794 3.622-5.52 5.078-1.03.869-2.1 2.137-3.184 2.864l.01 3.585a3.091 3.091 0 00.8-.713l11.837-10.842c.089 4.475.283 3.181-1.609 5.164l-8.326 7.678c-.5.45-2.576 2.123-2.687 2.611a23.425 23.425 0 00.031 3.4 27.332 27.332 0 012.327-2.118l7.086-6.537a28.846 28.846 0 013.194-2.894l-.019 3.708c-.7.436-3.077 2.875-3.947 3.607-.291.244-.55.436-.817.7l-6.291 5.82c-.572.48-.992 1.018-1.585 1.422l.01 3.585a16.626 16.626 0 002.368-2.157l1.575-1.452c2.454-2.072 4.657-4.434 7.109-6.52.551-.469 1.034-.983 1.591-1.427v3.714l-3.206 2.914c-1.906 1.622-3.621 3.459-5.525 5.073a7.386 7.386 0 00-.793.724c-.5.546-.974.874-1.561 1.464-2.081 2.091-1.575.471-1.571 4.959 2.117-1.7 4.261-4.051 6.358-5.8l1.585-1.443c1.093-.926 3.764-3.724 4.711-4.3v3.062c0 .821-.143.655-.555 1.077l-2.428 2.224c-1.661 1.443-3.15 3.041-4.809 4.485l-1.648 1.491c-1.046.893-2.133 2.125-3.22 2.91l.014 3.591c.885-.612 2.986-2.694 3.936-3.606.278-.268.539-.432.819-.7l7.888-7.241v3.7l-8.013 7.306c-.58.622-.951.866-1.552 1.475-3.592 3.647-3.087 1.287-3.086 6.351a13.715 13.715 0 001.622-1.436c.5-.538.971-.874 1.559-1.465l1.583-1.445c.552-.468 1.03-.976 1.586-1.445l6.1-5.594c.163-.137-.011-.023.212-.155-.018 4.549.487 3.074-1.636 5.124-.327.315-.425.47-.762.747l-3.231 2.936c-1.63 1.415-3.148 2.988-4.76 4.429-.417.373-2.269 1.859-2.268 2.274l.026 3.323c1.06-.784 2.833-2.609 3.91-3.6.29-.267.53-.436.821-.7s.462-.5.764-.747l4.755-4.335a21.13 21.13 0 012.378-2.158l-.005 2.5c-.476.321-11.5 10.46-11.964 11.03zm-15.078-9.311l.006-88.9 29.921.032c.162 9.739 0 19.625 0 29.382 0 19.544.112 39.328.008 58.837a1.246 1.246 0 01-.618 1.182l-5.756 5.275c-.4.329-.55.511-.944.893l-3.85 3.506a8.787 8.787 0 01-.965.875c-.742.628-1.983 1.941-2.835 2.594l-14.043-12.868a4.041 4.041 0 00-.924-.808zM120.6 87.654l.529.019a14.868 14.868 0 01-29.711 0l.633-.014H120.6zm78.566-31.6l12.905 28.669-12.951-.016.046-28.653zm-2.989 0v28.662l-12.989-.028 12.985-28.635zm-88.386-.222l13 28.889-13.049-.024.047-28.865zm-2.99.067v28.817l-13.059-.02 13.063-28.8zm92.53-11.14c2.206-.548 2.727 2.84.765 3.32a1.703 1.703 0 11-.765-3.32zm-91.382-.005c2.1-.526 2.914 2.776.769 3.321a1.706 1.706 0 11-.769-3.321zM88.27 84.766v3.875c.39.874.218 2.927 1.676 6.041a18.1 18.1 0 005.04 6.416 16.9 16.9 0 002.316 1.58 17.82 17.82 0 005.684 2.095 18.008 18.008 0 0021.269-16.657l-.161-3.464c-.43-.622-9.673-21.359-10.911-24.026l-3.592-7.981c-.379-.833-.922-1.859-1.2-2.683.449-.478.675-.456 1.1-1.059a8.006 8.006 0 00.74-1.4h83.471c.724 1.452.7 1.639 1.93 2.45-.39 1.248-1.381 3.041-1.933 4.323l-12.88 28.538a11.6 11.6 0 01-.894 1.82l-.054.053c-.164.176-.078-.023-.2.2-.035 3.192-.021 5.245.966 8.09a18 18 0 0026.194 9.584 18.226 18.226 0 008.018-10.15c.289-.9.6-3.319.806-3.773v-3.914c-.484-.06-.269.1-.509-.407L199.663 49.94a4.056 4.056 0 10-5.764-5.074l-83.875-.007a4.065 4.065 0 00-7.769 2.159c.256 1.756 1.192 2.229 1.918 2.942-.253.743-.67 1.528-1 2.255s-.629 1.44-.972 2.162c-1.967 4.145-3.988 8.905-5.916 13.122-1.316 2.877-2.67 5.8-3.94 8.713l-2.963 6.549c-.339.774-.657 1.778-1.116 2.004z" fill="#fff" fill-rule="evenodd"></path><path data-name="Path 129" d="M299.931 237.034h-5.74l-2.487-5.579a16.775 16.775 0 00-10.81-3.953 13.614 13.614 0 00-7.381 1.8 5.575 5.575 0 00-2.848 4.94 6.109 6.109 0 002.441 4.824 17.85 17.85 0 006.1 3.2q3.661 1.161 7.963 2.732t7.962 3.313a15.855 15.855 0 016.1 5.115c1.627 2.247 2.68 6.795 2.68 9.816a17.222 17.222 0 01-6.335 13.892c-8.309 6.936-42.929 4.972-54.878 5.593l-2-8q-6.509 6.509-19.412 6.509-9.881 0-15.4-5.58t-5.521-15.46v-29.291l-28.945.116v29.526q0 5.462 1.686 7.962a5.681 5.681 0 005.521 2.5l8.485-.814v8.253q-4.649 1.976-12.438 1.976-8.253 0-12.089-3.894t-3.836-13.077v-32.432h-6.974v-9.18l6.974-.465 1.628-17.553h11.043v17.436h41.615v36.5q0 5.928 3.255 9.416t9.416 3.487a23.486 23.486 0 007.9-1.278 17.14 17.14 0 005.115-2.557l1.511-1.279v-34.64l-6.501-.467.581-9.183h18.6v47.965c10.471 2.176 31.3 3.81 35.066 1.558a7.65 7.65 0 002.925-6.143c0-2.247-1.345-5.983-3.552-7.376a30.559 30.559 0 00-8.079-3.429q-4.765-1.336-9.59-3.081a19.4 19.4 0 01-8.137-5.521 14.017 14.017 0 01-3.314-9.59 14.884 14.884 0 015.928-12.322q5.928-4.649 14.878-4.65a25.158 25.158 0 0114.066 4.65l1.511-3.487h6.393l-1.072 17.2zm-248.9-5.8h-5.688l-5.123-15.09a18.8 18.8 0 00-12.322-4.65q-6.742 0-10.4 3.022a10.4 10.4 0 00-3.662 8.485 9.029 9.029 0 004.185 7.556 36 36 0 0010.171 4.94q5.982 1.914 12.031 4.185a26.519 26.519 0 0110.229 6.741 15.794 15.794 0 014.179 11.218q0 10.927-7.44 17.262t-20.92 6.338a79.583 79.583 0 01-13.949-1.163 49.126 49.126 0 01-9.3-2.324l-2.791-1.166-.233-18.6 9.532-.582 1.163 11.973a45.974 45.974 0 0014.181 2.209q8.487 0 12.613-3.429a11.148 11.148 0 004.126-9.009 7.81 7.81 0 00-3.022-6.161 21.2 21.2 0 00-7.556-3.952q-4.534-1.4-9.765-3.372t-9.765-4.185a19.188 19.188 0 01-7.555-6.684A18.564 18.564 0 01.928 224.16a20.506 20.506 0 016.8-15.925q6.8-6.158 18.075-6.161 7.556 0 15.577 5.231l1.859-4.185h7.792v28.109zm43.1-.212v-9.764H77.506v-17.437H66.463l-1.632 17.553-6.974.465v9.183h6.974v32.432q0 9.184 3.836 13.077t12.089 3.894c5.192 0 15-4.951 18.1-6.268a14.971 14.971 0 002.438 2.549q5.462 4.532 15.228 4.534a24.128 24.128 0 0010.055-1.976q4.359-1.977 5.812-3.6a16.229 16.229 0 002.15-2.906l1.744 6.626h16.506l.581-8.6-6.742-.465V241.25q0-21.85-20.807-21.853a25.932 25.932 0 00-15.228 5l-1.163-3.835h-7.788l-.457 19.179h9.532l.581-7.323a16.377 16.377 0 0111.159-3.953q6.277 0 8.95 2.964t2.674 10.055v2.906c-.465.078-1.2.142-2.209.233-4.109.372-6.782.659-8.021.814s-3.778.542-7.614 1.162a29.242 29.242 0 00-8.2 2.209q-2.439 1.278-5.928 3.313a11.516 11.516 0 00-4.878 5.055c-.929 2.013-1.347 8.673-1.252 9.475l-11.267 4.357c-2.385.922-4.4-.833-5.521-2.5s-1.686-4.322-1.686-7.962v-29.525zm26.353 41.5q-11.624 0-11.624-9.532a8.484 8.484 0 01.814-3.836 6.493 6.493 0 012.848-2.731 33.337 33.337 0 013.836-1.8 24.507 24.507 0 015.347-1.162q3.543-.464 5.754-.639l6.626-.524v12.671q-.233.466-.582 1.047a14.253 14.253 0 01-1.511 1.86 13.783 13.783 0 01-2.557 2.209 15.192 15.192 0 01-3.778 1.686 17.039 17.039 0 01-5.176.749z" fill="#fff" fill-rule="evenodd"></path><path data-name="Path 130" d="M38.397 308.029h-4.7l-.1-1.6 1.518-.081 4.351-11.476h3.022l4.351 11.6 1.5.061-.1 1.5H43.28v-1.3l1.235-.061-.971-2.51H38.12l-.971 2.449 1.356.061-.1 1.356zm2.449-11.375l-2.206 6.052h4.372l-2.166-6.052zm9.335 11.375l-.1-1.6 1.579-.081v-9.9l-1.6-.081.1-1.5h6.436a7.667 7.667 0 015.232 1.6 6.063 6.063 0 011.811 4.8 6.659 6.659 0 01-1.811 4.989 7.151 7.151 0 01-5.212 1.771zm6.416-11.334h-2.631v9.513h2.672a4.479 4.479 0 003.45-1.253 5.235 5.235 0 001.164-3.684 4.606 4.606 0 00-1.154-3.481 4.928 4.928 0 00-3.5-1.093zm13.585-.324l-1.235.081 3.5 9.857h.02l3.461-9.8-1.336-.061.1-1.579h4.837v1.5l-1.376.081-4.291 11.577h-3l-4.284-11.572-1.457-.081.1-1.5h4.959v1.5zm24.331 4.878a7.281 7.281 0 01-1.811 5.141 6.427 6.427 0 01-4.969 1.963 6.321 6.321 0 01-4.918-1.953 7.348 7.348 0 01-1.781-5.151 6.127 6.127 0 016.7-6.679 6.766 6.766 0 014.989 1.781 6.6 6.6 0 011.791 4.9zm-2.388 0a5.173 5.173 0 00-1.144-3.592 4.154 4.154 0 00-3.248-1.265 4.065 4.065 0 00-3.208 1.265 5.234 5.234 0 00-1.123 3.592 6.01 6.01 0 001.144 3.835 3.834 3.834 0 003.188 1.447 3.906 3.906 0 003.238-1.447 5.974 5.974 0 001.154-3.835zm16.621-1.66h-1.781l-.182-2.408a3.614 3.614 0 00-2.388-.789 4.252 4.252 0 00-3.208 1.3 5.015 5.015 0 00-1.245 3.623 5.5 5.5 0 001.255 3.785 4.336 4.336 0 003.42 1.417 5.387 5.387 0 001.467-.2 4.9 4.9 0 001.2-.5 8.488 8.488 0 00.87-.6 4.778 4.778 0 00.567-.506l.182-.2.87 1.437a2.435 2.435 0 01-.192.263 5.866 5.866 0 01-.617.577 6.354 6.354 0 01-1.052.729 7.116 7.116 0 01-1.518.577 7.483 7.483 0 01-2 .263 6.528 6.528 0 01-5.07-1.913 7.3 7.3 0 01-1.751-5.131 6.62 6.62 0 011.842-4.9 6.309 6.309 0 014.655-1.842 5.436 5.436 0 012.955.931l.364-.749h1.356v4.837zm7.088 8.44h-4.7l-.1-1.6 1.518-.081 4.351-11.476h3.015l4.351 11.6 1.5.061-.1 1.5h-4.959v-1.3l1.235-.061-.971-2.51h-5.426l-.971 2.449 1.357.061-.1 1.356zm2.448-11.375l-2.205 6.052h4.371l-2.166-6.052zm8.849 1.741l.2-1.781h2.732v9.735l-1.558.081.1 1.6h5.262l.1-1.6-1.579-.081v-9.735h2.8l.142 1.781h1.68v-3.623l-1.963.1h-7.509l-1.963-.1-.1 3.623zm22.025-.3h-1.781l-.081-1.477h-4.534v3.947l5.687-.02v1.68h-5.687v4.068h5l.182-1.66 1.68.1-.121 3.3h-10.527l-.1-1.6 1.579-.081v-9.9l-1.6-.081.1-1.5h8.235l1.963-.1v3.319zm21.95 1.5h-1.781l-.182-2.408a3.615 3.615 0 00-2.389-.789 4.25 4.25 0 00-3.207 1.3 5.015 5.015 0 00-1.245 3.623 5.5 5.5 0 001.255 3.785 4.336 4.336 0 003.42 1.417 5.391 5.391 0 001.467-.2 4.9 4.9 0 001.2-.5 8.471 8.471 0 00.869-.6 4.724 4.724 0 00.568-.506l.182-.2.87 1.437a2.592 2.592 0 01-.193.263 5.827 5.827 0 01-.616.577 6.361 6.361 0 01-1.053.729 7.1 7.1 0 01-1.518.577 7.484 7.484 0 01-2 .263 6.527 6.527 0 01-5.069-1.913 7.3 7.3 0 01-1.751-5.131 6.62 6.62 0 011.842-4.9 6.309 6.309 0 014.655-1.842 5.436 5.436 0 012.955.931l.364-.749h1.356v4.837zm16.9 1.66a7.281 7.281 0 01-1.811 5.141 6.427 6.427 0 01-4.969 1.963 6.321 6.321 0 01-4.918-1.953 7.348 7.348 0 01-1.781-5.151 6.127 6.127 0 016.7-6.679 6.766 6.766 0 014.989 1.781 6.6 6.6 0 011.791 4.9zm-2.388 0a5.173 5.173 0 00-1.144-3.592 4.154 4.154 0 00-3.248-1.265 4.065 4.065 0 00-3.208 1.265 5.234 5.234 0 00-1.123 3.592 6.01 6.01 0 001.144 3.835 3.834 3.834 0 003.188 1.447 3.906 3.906 0 003.238-1.447 5.974 5.974 0 001.154-3.835zm10.245 6.78h-4.875l-.1-1.6 1.579-.081.02-9.9-1.6-.081.1-1.5h4.473l4.979 10.767h.04l4.918-10.767h4.453v1.6l-1.5.081v9.8l1.6.081-.1 1.6h-4.979l-.1-1.4 1.376-.081-.02-8.541h-.04l-4.655 10.018h-2.166l-4.655-10.018h-.04l-.02 8.582 1.417.081-.1 1.356zm22.308 0h-5.425l-.1-1.6 1.579-.081v-9.9l-1.6-.081.1-1.5h5.463q5.1 0 5.1 4.068a4.213 4.213 0 01-1.518 3.512 5.532 5.532 0 01-3.541 1.2h-1.862v2.914l1.9.061-.1 1.4zm-.364-11.516h-1.437v5.566h1.437a3.388 3.388 0 002.236-.729 2.772 2.772 0 00.88-2.267q0-2.57-3.116-2.57zm10.69 11.516h-4.7l-.1-1.6 1.518-.081 4.351-11.476h3.022l4.351 11.6 1.5.061-.1 1.5h-4.959v-1.3l1.235-.061-.971-2.51h-5.424l-.971 2.449 1.356.061-.1 1.356zm2.449-11.375l-2.206 6.052h4.372l-2.166-6.052zm22.45 11.476h-2.368l-7.225-9.978h-.04l.081.87v7.367l1.619.061-.1 1.579h-5.08l-.1-1.6 1.579-.081v-9.9l-1.6-.081.1-1.5h3.886l7.185 10.16-.061-.668v-7.853l-1.619-.061.1-1.579h5.121v1.6l-1.477.081v11.577zm12.572-.1h-5.261l-.121-1.6 1.579-.081v-3.6l-4.149-6.315-1.923-.061.121-1.5h5.242v1.5l-.891.061 2.853 4.351 2.753-4.311-.83-.02v-1.579h4.979v1.6l-1.863.061-3.986 6.193v3.623l1.6.081z" fill="#fff" fill-rule="evenodd"></path></svg> 